P1
# Created by GIMP version 2.10.18 PNM plug-in
128 128
0000000000000000000000000000000000000000000000000000000000000000000000
0000000000000000000000000000000000000000000000000000000000000000000000
0000000000000000000000000000000000000000000000000000000000000000000000
0000000000000000000000000000000000000000000000000000000000000000000000
0000000000000000000000000000000000000000000000000000000000000000000000
0000000000000000000000000000000000000000000000000000000000000000000000
0000000000000000000000000000000000000000000000000000000000000000000000
0000000000000000000000000000000000000000000000000000000000000000000000
0000000000000000000000000000000000000000000000000000000000000000000000
0000000000000000000000000000000000000000000000000000000000000000000000
0000000000000000000000000000000000000000000000000000000000000000000000
0000000000000000000000000000000000000000000000000000000000000000000000
0000000000000000000000000000000000000000000000000000000000000000000000
0000000000000000000000000000000000000000000000000000000000000000000000
0000000000000000000000000000000000000000000000000000111111111111111111
1111111111111111111111111111111111111111111111111111111111111111111111
1111111111111111111111110000000000000000111111111111111111111111111111
1111111111111111111111111111111111111111111111111111111111111111111111
1111111111110000000000000000110000000000000000000000000000000000011000
0000000000000000000000000000000110000000000000000000000000000000000011
0000000000000000110000000000000000000000000000000000011000000000000000
0000000000000000000110000000000000000000000000000000000011000000000000
0000110000000000000000000000000000000000011000000000000000000000000000
0000000110000000000000000000000000000000000011000000000000000011000000
0000000000000000000000000000011000000000000011111111000000000000011000
0000000000000000000000000000000011000000000000000011000000000000000000
0000000000000000011000000000011111111111111000000000011000000000000000
0000000000000000000011000000000000000011000000000000000000000000000000
0000011000000000111111111111111100000000011000000000000000000000000000
0000000011000000000000000011000000000000000000000000000000000001100000
0011111111111111111111000000011000000000000000000000000000000000001100
0000000000000011000000000000000000000000000000000001100000011111111111
1111111111100000011000000000000000000000000000000000001100000000000000
0011000000000000000000000000000000000001100000111111111111111111111111
0000011000000000000000000000000000000000001100000000000000001100000000
0000000000000000000000000001100000111111111111111111111111000001100000
0000000000000000000000000000001100000000000000001100000000000000000000
0000000000000001100001111111111111111111111111100001100000000000000000
0000000000000000001100000000000000001100000000000000000000000000000000
0001100001111111111111111111111111100001100000000000000000000000000000
0000001100000000000000001100000000000000000000000000000000000110001111
1111111111111111111111110001100000000000000000000000000000000000110000
0000000000001100000000000000000000000000000000000110001111111111111111
1111111111110001100000000000000000000000000000000000110000000000000000
1100000000000000000000000000000000000110001111111111111111111111111111
0001100000000000000000000000000000000000110000000000000000110000000000
0000000000000000000000000110001111111111111111111111111111000110000000
0000000000000000000000000000110000000000000000110000000000000000000000
0000000000000110011111111111111111111111111111100110000000000000000000
0000000000000000110000000000000000110000000000000000000000000000000000
0110011111111111111111111111111111100110000000000000000000000000000000
0000110000000000000000110000000000000000000000000000000000011001111111
1111111111111111111111100110000000000000000000000000000000000011000000
0000000000110000000000000000000000000000000000011000111111111111111111
1111111111000110000000000000000000000000000000000011000000000000000011
0000000000000000000000000000000000011000111111111111111111111111111100
0110000000000000000000000000000000000011000000000000000011000000000000
0000000000000000000000011000111111111111111111111111111100011000000000
0000000000000000000000000011000000000000000011000000000000000000000000
0000000000011000111111111111111111111111111100011000000000000000000000
0000000000000011000000000000000011000000000000000000000000000000000001
1000011111111111111111111111111000011000000000000000000000000000000000
0011000000000000000011000000000000000000000000000000000001100001111111
1111111111111111111000011000000000000000000000000000000000001100000000
0000000011000000000000000000000000000000000001100000111111111111111111
1111110000011000000000000000000000000000000000001100000000000000001100
0000000000000000000000000000000001100000011111111111111111111110000001
1000000000000000000000000000000000001100000000000000001100000000000000
0000000000000000000001100000011111111111111111111110000001100000000000
0000000000000000000000001100000000000000001100000000000000000000000000
0000000001100000001111111111111111111100000001100000000000000000000000
0000000000001100000000000000001100000000000000000000000000000000000110
0000000011111111111111110000000001100000000000000000000000000000000000
1100000000000000001100000000000000000000000000000000000110000000000111
1111111111100000000001100000000000000000000000000000000000110000000000
0000001100000000000000000000000000000000000110000000000000111111110000
0000000001100000000000000000000000000000000000110000000000000000110000
0000000000000000000000000000000110000000000000000000000000000000000110
0000000000000000000000000000000000110000000000000000110000000000000000
0000000000000000000110000000000000000000000000000000000110000000000000
0000000000000000000000110000000000000000110000000000000000000000000000
0000000110000000000000000000000000000000000110000000000000000000000000
0000000000110000000000000000111111111111111111111111111111111111111111
1111111111111111111111111111111111111111111111111111111111111111111111
0000000000000000111111111111111111111111111111111111111111111111111111
1111111111111111111111111111111111111111111111111111111111000000000000
0000110000000000000000000000000000000000011000000000000000000000000000
0000000110000000000000000000000000000000000011000000000000000011000000
0000000000000000000000000000011000000000000000000000000000000000011000
0000000000000000000000000000000011000000000000000011000000000000000000
0000000000000000011000000000000000000000000000000000011000000000000000
0111000000000000000011000000000000000011000000000000000000000000000000
0000011000000000000000000000000000000000011000000000000111111111110000
0000000011000000000000000011000000000000000000000000000000000001100000
0000000000000000000000000000011000000000011111111111111100000000001100
0000000000000011000000000000000000000000000000000001100000000000000000
0000000000000000011000000000111111111111111111000000001100000000000000
0011000000000000000000000000000000000001100000000000000000000000000000
0000011000000011111111111111111111100000001100000000000000001100000000
0000000000000000000000000001100000000000000000000000000000000001100000
0111111111111111111111110000001100000000000000001100000000000000000000
0000000000000001100000000000000000000000000000000001100000011111111111
1111111111110000001100000000000000001100000000000000000000000000000000
0001100000000000000000000000000000000001100000111111111111111111111111
1000001100000000000000001100000000000000000000000000000000000110000000
0000000000000000000000000001100001111111111111111111111111110000110000
0000000000001100000000000000000000000000000000000110000000000000000000
0000000000000001100001111111111111111111111111110000110000000000000000
1100000000000000000000000000000000000110000000000000000000000000000000
0001100001111111111111111111111111110000110000000000000000110000000000
0000000000000000000000000110000000000000000000000000000000000110001111
1111111111111111111111111000110000000000000000110000000000000000000000
0000000000000110000000000000000000000000000000000110001111111111111111
1111111111111000110000000000000000110000000000000000000000000000000000
0110000000000000000000000000000000000110001111111111111111111111111111
1000110000000000000000110000000000000000000000000000000000011000000000
0000000000000000000000000110001111111111111111111111111111100011000000
0000000000110000000000000000000000000000000000011000000000000000000000
0000000000000110001111111111111111111111111111100011000000000000000011
0000000000000000000000000000000000011000000000000000000000000000000000
0110001111111111111111111111111111100011000000000000000011000000000000
0000000000000000000000011000000000000000000000000000000000011000111111
1111111111111111111111100011000000000000000011000000000000000000000000
0000000000011000000000000000000000000000000000011000111111111111111111
1111111111100011000000000000000011000000000000000000000000000000000001
1000000000000000000000000000000000011000011111111111111111111111111100
0011000000000000000011000000000000000000000000000000000001100000000000
0000000000000000000000011000011111111111111111111111111100001100000000
0000000011000000000000000000000000000000000001100000000000000000000000
0000000000011000011111111111111111111111111100001100000000000000001100
0000000000000000000000000000000001100000000000000000000000000000000001
1000001111111111111111111111111000001100000000000000001100000000000000
0000000000000000000001100000000000000000000000000000000001100000011111
1111111111111111110000001100000000000000001100000000000000000000000000
0000000001100000000000000000000000000000000001100000011111111111111111
1111110000001100000000000000001100000000000000000000000000000000000110
0000000000000000000000000000000001100000001111111111111111111110000000
1100000000000000001100000000000000000000000000000000000110000000000000
0000000000000000000001100000000011111111111111111100000000110000000000
0000001100000000000000000000000000000000000110000000000000000000000000
0000000001100000000001111111111111110000000000110000000000000000110000
0000000000000000000000000000000110000000000000000000000000000000000110
0000000000011111111111000000000000110000000000000000110000000000000000
0000000000000000000110000000000000000000000000000000000110000000000000
0001110000000000000000110000000000000000110000000000000000000000000000
0000000110000000000000000000000000000000000110000000000000000000000000
0000000000110000000000000000110000000000000000000000000000000000011000
0000000000000000000000000000000110000000000000000000000000000000000011
0000000000000000111111111111111111111111111111111111111111111111111111
1111111111111111111111111111111111111111111111111111111111000000000000
0000111111111111111111111111111111111111111111111111111111111111111111
1111111111111111111111111111111111111111111111000000000000000011000000
0000000000000000000000000000011000000000000000000000000000000000011000
0000000000000000000000000000000011000000000000000011000000000000000000
0000000000000000011000000000000000000000000000000000011000000000000000
0000000000000000000011000000000000000011000000000000000000000000000000
0000011000000000000000000000000000000000011000000000000000000000000000
0000000011000000000000000011000000000000011111111000000000000001100000
0000000011111111000000000000011000000000000001111111100000000000001100
0000000000000011000000000001111111111111000000000001100000000001111111
1111111000000000011000000000001111111111111000000000001100000000000000
0011000000000111111111111111110000000001100000000011111111111111110000
0000011000000000111111111111111110000000001100000000000000001100000000
1111111111111111111000000001100000001111111111111111111100000001100000
0001111111111111111111000000001100000000000000001100000001111111111111
1111111100000001100000011111111111111111111110000001100000001111111111
1111111111100000001100000000000000001100000011111111111111111111111000
0001100000011111111111111111111110000001100000011111111111111111111111
0000001100000000000000001100000111111111111111111111111100000110000011
1111111111111111111111000001100000111111111111111111111111100000110000
0000000000001100000111111111111111111111111100000110000111111111111111
1111111111100001100000111111111111111111111111100000110000000000000000
1100001111111111111111111111111110000110000111111111111111111111111110
0001100001111111111111111111111111110000110000000000000000110000111111
1111111111111111111110000110001111111111111111111111111111000110000111
1111111111111111111111110000110000000000000000110001111111111111111111
1111111110000110001111111111111111111111111111000110000111111111111111
1111111111111000110000000000000000110001111111111111111111111111111100
0110001111111111111111111111111111000110001111111111111111111111111111
1000110000000000000000110001111111111111111111111111111100011000111111
1111111111111111111111000110001111111111111111111111111111100011000000
0000000000110001111111111111111111111111111100011001111111111111111111
1111111111100110001111111111111111111111111111100011000000000000000011
0001111111111111111111111111111100011001111111111111111111111111111110
0110001111111111111111111111111111100011000000000000000011000111111111
1111111111111111111100011001111111111111111111111111111110011000111111
1111111111111111111111100011000000000000000011000111111111111111111111
1111111100011000111111111111111111111111111100011000111111111111111111
1111111111100011000000000000000011000111111111111111111111111111110001
1000111111111111111111111111111100011000111111111111111111111111111110
0011000000000000000011000111111111111111111111111111110001100011111111
1111111111111111111100011000111111111111111111111111111110001100000000
0000000011000011111111111111111111111111100001100011111111111111111111
1111111100011000011111111111111111111111111100001100000000000000001100
0011111111111111111111111111100001100001111111111111111111111111100001
1000011111111111111111111111111100001100000000000000001100000111111111
1111111111111111000001100001111111111111111111111111100001100000111111
1111111111111111111000001100000000000000001100000111111111111111111111
1111000001100000111111111111111111111111000001100000111111111111111111
1111111000001100000000000000001100000011111111111111111111111000000110
0000111111111111111111111111000001100000011111111111111111111111000000
1100000000000000001100000001111111111111111111110000000110000001111111
1111111111111110000001100000001111111111111111111110000000110000000000
0000001100000000111111111111111111100000000110000000111111111111111111
1100000001100000000111111111111111111100000000110000000000000000110000
0000011111111111111111000000000110000000001111111111111111000000000110
0000000011111111111111111000000000110000000000000000110000000000011111
1111111100000000000110000000000111111111111110000000000110000000000011
1111111111100000000000110000000000000000110000000000000111111111000000
0000000110000000000000111111110000000000000110000000000000111111111000
0000000000110000000000000000110000000000000000000000000000000000011000
0000000000000000000000000000000110000000000000000000000000000000000011
0000000000000000110000000000000000000000000000000000011000000000000000
0000000000000000000110000000000000000000000000000000000011000000000000
0000110000000000000000000000000000000000011000000000000000000000000000
0000000110000000000000000000000000000000000011000000000000000011111111
1111111111111111111111111111111111111111111111111111111111111111111111
1111111111111111111111111111111111000000000000000011111111111111111111
1111111111111111111111111111111111111111111111111111111111111111111111
1111111111111111111111000000000000000000000000000000000000000000000000
0000000000000000000000000000000000000000000000000000000000000000000000
0000000000000000000000000000000000000000000000000000000000000000000000
0000000000000000000000000000000000000000000000000000000000000000000000
0000000000000000000000000000000000000000000000000000000000000000000000
0000000000000000000000000000000000000000000000000000000000000000000000
0000000000000000000000000000000000000000000000000000000000000000000000
0000000000000000000000000000000000000000000000000000000000000000000000
0000000000000000000000000000000000000000000000000000000000000000000000
0000000000000000000000000000000000000000000000000000000000000000000000
0000000000000000000000000000000000000000000000000000000000000000000000
0000000000000000000000000000000000000000000000000000000000000000000000
0000000000000000000000000000000000000000000000000000000000000000000000
0000000000000000000000000000000000000000000000000000000000000000000000
0000000000000000000000000000000000000000000000000000000000000000000000
0000