P2
# Created by GIMP version 2.10.18 PNM plug-in
99 128
255
229
228
227
228
229
230
228
229
230
230
229
227
227
228
225
224
221
219
220
223
223
223
226
225
224
226
226
227
226
229
228
225
226
227
229
228
228
228
229
230
229
228
225
229
230
232
231
233
235
234
233
231
231
232
232
233
233
234
234
234
233
234
234
235
235
236
237
237
236
236
237
237
237
238
238
239
239
239
239
239
239
240
239
239
239
239
238
238
239
238
237
237
237
235
236
236
236
236
232
229
231
230
231
231
230
230
231
231
231
230
230
229
230
229
229
227
226
228
229
230
230
232
231
229
231
232
232
232
233
233
233
233
233
234
234
233
233
234
236
233
233
235
232
232
231
231
227
223
220
215
217
217
225
221
230
236
236
237
237
236
237
237
239
239
237
239
240
240
240
239
240
240
241
241
241
241
240
241
241
241
241
241
241
241
241
240
240
240
241
240
239
239
239
239
237
238
237
234
229
231
231
230
230
230
230
231
232
232
231
231
230
230
230
230
227
230
226
229
229
231
230
230
230
231
232
232
232
231
231
233
233
234
234
234
232
232
233
235
231
222
216
198
182
184
194
193
193
194
198
189
171
170
159
159
184
204
221
232
235
235
236
238
237
238
239
240
239
240
239
241
241
241
240
241
241
241
241
240
241
241
241
241
241
241
241
241
241
240
240
240
240
239
238
238
239
237
233
227
229
229
230
230
230
228
231
232
231
230
231
230
228
230
229
229
225
225
227
228
228
229
229
229
228
228
231
229
230
231
231
231
230
232
232
232
218
208
208
185
157
166
163
182
192
207
205
202
202
211
192
194
197
175
167
155
155
162
164
188
188
226
234
235
237
238
238
239
239
238
239
239
240
240
239
240
241
241
241
240
240
241
241
241
240
241
240
240
240
240
240
239
238
238
238
237
236
231
227
229
230
231
230
229
229
230
231
228
231
230
229
228
227
228
228
225
225
226
227
226
228
228
227
228
229
229
228
230
230
230
230
230
228
203
166
152
150
169
176
191
208
210
211
214
218
214
206
201
208
203
200
191
197
187
183
169
163
159
159
157
154
178
189
224
235
238
237
238
238
237
237
240
238
238
239
240
240
241
240
240
240
240
240
240
239
239
239
238
238
239
238
237
238
238
237
236
233
224
228
229
231
230
229
230
229
229
228
229
228
225
226
226
227
224
224
225
226
223
226
226
225
224
225
226
226
228
229
228
228
223
183
154
136
146
169
187
207
213
210
220
218
220
217
218
208
195
195
199
201
187
189
202
195
191
197
202
186
174
174
152
120
120
140
189
218
234
236
236
237
237
238
236
238
238
238
238
239
238
239
239
238
239
240
238
238
238
238
238
238
238
238
238
239
236
236
232
225
228
227
230
229
227
228
228
226
226
226
226
225
224
223
222
222
223
221
223
223
223
222
224
224
224
226
224
222
226
225
209
159
132
165
181
194
203
211
216
212
214
216
220
218
218
212
208
193
176
181
191
190
202
203
200
203
209
207
192
195
194
178
148
138
138
150
140
196
225
233
236
236
236
237
237
237
237
238
239
237
237
237
239
239
238
239
236
237
238
237
236
238
238
238
236
236
236
232
225
228
226
229
228
229
228
230
230
226
226
225
225
223
224
222
222
223
222
222
223
221
222
222
220
222
225
224
223
214
178
121
133
179
202
205
207
208
211
211
207
211
213
218
215
215
209
212
202
182
168
168
189
196
198
200
204
210
204
194
205
205
192
185
179
171
171
140
141
155
189
233
235
235
235
235
236
236
236
236
235
236
236
236
237
237
237
236
237
237
237
236
237
237
237
236
236
236
232
222
225
224
226
228
225
225
226
225
224
224
222
221
223
222
220
220
220
221
221
218
218
219
219
220
220
223
220
199
170
125
134
172
199
205
204
201
205
209
205
205
206
209
211
212
208
207
208
208
186
176
170
190
194
193
196
199
203
205
205
208
211
211
205
202
195
182
164
178
138
116
183
217
232
234
234
235
235
235
236
235
236
236
236
236
236
236
237
237
236
236
236
236
236
236
236
236
236
232
221
226
224
225
225
224
226
225
222
222
221
221
219
221
221
220
218
217
218
220
216
216
217
217
219
217
210
172
148
129
133
186
199
195
200
202
202
201
201
200
202
206
207
210
214
210
209
212
209
192
184
181
191
197
192
197
195
206
207
204
206
211
213
215
211
211
202
197
183
160
115
134
157
180
221
235
235
235
233
234
234
233
234
234
234
236
236
234
236
235
236
236
236
236
236
236
236
236
232
221
221
223
223
224
225
224
225
223
218
220
221
219
220
221
216
214
216
215
216
213
212
214
215
215
208
169
165
137
129
176
194
195
196
197
199
200
199
200
201
205
206
204
206
211
213
207
210
212
203
190
183
199
200
197
202
203
209
206
203
200
206
208
207
207
210
200
207
207
200
151
147
172
151
137
196
231
232
234
231
233
231
234
233
235
235
236
235
234
235
236
235
236
236
236
236
236
236
232
219
221
223
222
222
223
221
221
221
218
217
221
218
217
217
218
215
213
214
213
210
211
213
211
207
177
162
129
132
159
189
195
195
194
197
199
202
199
202
197
200
203
204
205
207
208
209
216
215
208
201
194
205
203
197
204
207
211
205
204
201
203
202
207
203
203
200
204
206
203
185
160
177
174
166
164
214
231
231
230
233
231
233
234
233
234
236
234
234
236
235
235
236
236
236
236
235
236
232
221
220
222
222
223
221
217
218
219
218
223
218
218
216
216
215
215
213
213
212
211
212
213
209
189
181
169
153
163
184
195
196
193
196
200
203
204
203
203
202
204
200
204
207
207
210
210
211
213
210
209
206
205
206
199
205
208
207
206
207
202
204
202
199
203
201
198
201
201
190
181
172
192
189
168
168
156
214
230
231
231
230
229
231
231
233
232
232
233
234
234
234
235
236
236
236
236
236
232
221
221
223
222
223
221
219
216
216
217
217
214
216
213
215
213
213
209
210
209
207
209
211
201
189
174
166
169
178
189
197
199
199
198
204
202
204
204
203
208
209
204
205
211
211
210
207
208
206
206
203
208
208
208
202
201
206
207
207
205
203
204
202
198
197
198
198
197
196
190
195
189
212
204
205
194
163
158
226
231
229
229
229
230
229
230
232
230
232
233
234
235
234
235
235
234
234
236
232
222
221
220
220
220
218
219
218
217
217
216
213
214
210
212
212
212
208
203
205
206
207
206
184
183
176
178
187
192
193
202
202
204
203
204
203
205
204
205
206
209
207
207
208
210
208
206
207
208
206
206
210
212
208
205
206
209
208
207
206
207
205
204
202
199
199
200
196
199
197
191
196
207
211
216
197
193
175
201
228
227
227
228
230
230
228
227
231
232
232
232
233
234
234
234
235
236
235
231
221
223
219
219
220
219
218
219
220
216
213
216
214
211
212
211
210
209
208
207
206
207
194
168
187
182
186
189
194
199
201
202
205
205
206
206
205
206
207
207
208
207
207
207
207
207
207
207
209
207
207
208
210
209
206
210
209
211
209
207
207
206
206
208
203
201
195
196
199
195
192
193
205
213
213
206
206
165
149
223
226
225
227
228
229
229
229
229
231
230
232
232
233
233
234
236
235
235
232
220
222
222
220
219
219
217
220
219
214
214
214
212
212
213
210
210
209
213
210
205
207
183
181
190
188
183
192
199
199
201
203
205
205
204
207
205
206
207
205
206
205
206
205
205
205
207
204
204
206
204
206
208
208
208
206
208
208
206
207
207
206
207
203
202
201
197
199
195
194
194
190
200
211
216
219
216
191
148
212
226
225
226
228
228
228
230
230
229
232
231
232
234
234
234
235
235
236
231
218
218
219
221
219
218
218
217
213
213
211
213
210
209
208
209
208
205
205
207
209
199
176
189
185
185
192
197
198
198
199
202
202
204
207
208
204
205
205
206
204
205
204
204
203
202
205
204
201
201
202
204
201
204
206
202
207
207
208
207
206
206
204
204
205
204
199
198
197
196
198
194
191
209
215
214
210
208
175
202
225
223
226
226
227
227
227
228
228
228
231
233
232
233
234
233
234
233
230
219
218
218
219
217
215
213
213
211
210
209
210
209
207
205
209
206
203
204
206
205
194
181
181
183
188
190
199
199
198
200
201
201
203
203
205
205
203
206
204
201
201
200
203
205
204
204
202
202
202
202
202
203
203
201
204
208
206
207
206
206
206
205
203
205
206
202
198
198
196
195
196
189
204
212
217
209
211
195
193
223
223
224
225
226
226
226
226
228
229
230
230
231
232
232
232
232
232
230
217
216
214
218
215
214
214
214
210
207
209
205
206
205
205
205
204
201
206
206
204
194
179
179
187
186
196
199
200
199
196
198
201
201
203
206
203
201
204
203
201
198
201
199
200
201
198
198
200
200
200
201
201
203
201
200
206
203
204
205
205
205
203
202
202
206
203
199
199
200
200
202
199
194
209
214
206
213
191
183
223
223
224
226
226
225
226
226
228
227
230
230
230
231
232
232
233
234
232
213
214
214
219
217
215
214
213
212
211
208
206
209
205
207
205
203
202
205
205
204
191
170
178
192
185
191
199
201
199
198
200
202
199
200
202
202
200
200
200
201
201
200
201
202
198
197
199
199
196
199
200
202
201
201
203
206
203
204
204
206
206
203
201
203
204
203
198
201
199
198
197
199
188
198
211
212
207
200
183
216
222
224
225
225
224
226
225
226
226
228
229
232
232
232
232
232
233
229
213
215
216
219
217
214
206
213
209
211
209
210
210
207
208
206
201
202
203
202
203
182
177
186
175
189
198
200
199
197
199
200
201
200
201
199
197
196
193
195
196
193
198
197
196
195
197
198
195
196
196
199
200
199
198
200
199
198
200
201
202
204
200
201
202
200
199
195
197
192
193
199
201
197
187
192
201
196
202
180
212
222
222
222
224
224
224
223
224
224
225
228
229
230
231
232
233
231
228
211
213
215
219
217
212
215
216
211
210
208
208
208
205
203
204
202
201
203
203
202
172
181
170
174
187
196
196
196
195
196
197
196
195
195
193
190
187
186
189
188
189
189
189
189
189
190
190
188
190
188
190
192
190
191
189
195
193
195
194
198
198
197
195
195
193
193
191
190
189
188
197
195
201
186
184
195
185
196
186
208
221
220
220
221
222
223
224
224
224
227
229
228
230
231
231
232
231
229
211
212
214
216
215
215
215
216
212
207
208
209
206
202
204
202
202
200
204
204
199
172
168
164
179
187
191
192
189
192
193
193
190
188
188
187
181
181
182
184
185
183
184
186
183
186
185
181
184
184
186
188
188
187
187
188
190
188
193
192
195
195
193
190
191
188
190
191
186
183
190
197
197
200
185
179
183
189
200
187
201
219
219
218
221
221
222
222
224
224
227
228
229
230
230
230
230
230
226
213
213
217
217
214
212
213
212
212
207
207
207
205
202
205
206
203
196
202
202
197
168
159
167
184
180
185
189
185
185
188
187
187
189
184
180
175
173
174
179
183
181
183
182
183
183
182
181
180
181
183
185
184
184
183
187
188
187
189
188
192
193
193
187
189
186
186
185
183
178
184
191
193
197
187
188
182
191
207
185
198
218
217
220
221
219
222
221
222
223
226
227
229
230
231
230
230
229
227
213
211
214
215
212
211
211
210
209
207
209
207
204
202
202
201
200
198
201
199
189
164
158
163
161
175
182
185
181
179
178
186
183
181
181
184
180
175
175
178
180
179
180
187
184
185
183
182
182
179
183
182
186
185
189
189
190
191
189
189
191
191
190
187
186
179
184
180
178
178
187
189
192
192
189
186
197
187
200
199
194
216
216
218
220
219
218
221
220
222
225
227
227
230
231
230
230
229
227
213
212
213
212
213
208
211
209
208
207
205
204
205
201
202
200
198
196
201
197
178
155
159
158
162
175
181
184
185
180
183
188
186
181
181
182
180
177
176
182
182
180
180
182
185
182
183
183
181
181
182
188
190
189
190
191
194
192
193
192
191
191
191
188
186
179
178
174
177
180
187
187
190
189
188
175
193
194
198
188
185
213
215
217
221
219
220
221
221
221
222
225
228
229
229
230
230
230
228
213
211
213
215
215
211
210
210
211
206
203
204
203
202
202
200
198
197
197
199
177
147
155
155
164
173
182
182
187
186
187
190
186
183
183
182
183
182
185
190
191
189
190
192
193
192
191
190
185
182
185
187
192
192
191
190
193
197
192
188
190
188
189
188
185
178
177
178
177
180
187
186
189
186
182
173
188
189
200
188
171
212
217
216
219
219
220
220
220
222
224
226
228
230
229
230
229
229
227
210
210
212
214
212
207
208
207
208
206
203
205
204
200
198
198
198
195
199
201
176
145
154
159
166
174
179
187
191
187
184
185
183
184
183
185
185
185
188
190
194
191
194
194
196
195
193
192
191
190
194
197
198
197
197
193
199
192
196
195
196
193
194
191
189
181
178
174
178
184
184
184
185
182
177
167
183
189
200
193
179
211
216
217
219
220
222
222
222
222
222
224
226
228
229
230
229
229
227
207
206
210
213
214
208
206
208
208
208
204
205
204
198
196
198
194
193
199
194
170
145
155
159
167
171
181
182
186
182
179
181
182
178
181
181
181
186
187
187
192
191
193
196
198
198
195
194
192
191
192
199
198
198
198
199
198
196
196
196
195
194
195
192
192
184
181
174
181
182
187
183
180
183
170
159
188
192
181
193
187
211
216
219
222
220
221
222
222
223
222
224
227
228
229
230
229
230
228
207
207
210
214
211
208
203
206
207
209
206
202
203
202
199
198
195
192
200
202
174
137
150
163
170
180
179
176
180
176
179
184
180
181
187
187
184
181
179
178
183
185
190
192
194
194
191
190
192
189
195
198
200
197
196
197
198
192
192
194
195
196
193
192
194
184
181
183
185
182
181
179
175
171
160
150
185
199
185
184
188
206
216
218
219
220
220
222
222
221
221
224
227
228
228
228
229
230
226
205
206
210
211
208
203
203
205
205
208
207
202
202
203
203
197
194
194
197
203
172
132
151
156
180
169
176
178
177
174
181
186
187
186
185
183
186
180
177
173
170
182
188
193
192
194
194
188
190
192
199
197
196
199
199
196
194
185
186
190
194
198
199
198
193
182
179
183
186
183
178
176
173
163
161
160
176
190
190
188
179
206
216
217
219
220
218
220
220
219
217
223
227
228
228
228
227
228
225
207
205
209
211
210
200
200
201
203
206
206
201
201
201
200
198
198
194
201
204
170
135
140
154
163
171
177
176
175
177
182
189
184
182
181
182
183
177
176
174
171
175
182
182
186
188
190
185
176
187
195
190
195
196
195
190
188
183
189
194
199
194
191
189
191
189
181
180
182
177
175
177
169
162
160
167
174
189
188
183
176
204
214
216
218
220
219
220
219
219
221
223
225
226
226
226
227
228
225
207
205
206
209
208
202
200
201
200
202
203
202
201
200
199
197
197
198
201
201
174
131
121
148
165
177
180
177
177
178
187
187
185
169
159
164
165
167
172
176
173
177
175
175
176
175
184
157
139
168
179
173
182
185
189
188
192
187
189
191
189
187
179
178
177
181
182
187
178
176
175
176
165
168
167
164
176
185
186
164
171
206
216
216
218
220
220
219
217
217
223
223
225
225
225
227
226
228
226
210
202
205
208
204
200
197
200
199
201
205
204
200
201
200
200
198
198
199
201
183
126
90
111
161
173
176
175
174
181
181
172
143
116
112
109
118
125
140
152
163
170
171
173
162
157
162
140
107
137
160
157
169
171
172
180
180
178
175
162
149
140
144
134
137
156
169
184
186
176
171
175
169
175
169
166
164
177
170
150
168
215
215
216
218
219
219
219
219
220
223
224
227
228
225
226
226
227
225
200
200
204
206
202
199
195
199
197
203
204
202
199
202
201
198
197
200
203
202
191
141
118
102
112
161
172
165
172
173
156
110
54
35
62
48
42
49
60
73
108
128
130
140
139
135
134
122
105
117
138
126
136
136
132
133
131
125
123
111
109
100
104
109
98
104
126
161
168
171
174
173
174
175
171
163
163
169
158
150
173
215
217
218
219
221
216
217
219
222
224
224
225
227
225
225
226
227
223
199
199
202
202
201
197
196
198
197
203
202
204
199
197
199
197
198
200
204
202
188
167
133
146
91
126
163
169
172
153
105
46
54
101
114
70
47
33
26
26
36
46
25
42
74
87
114
112
126
116
102
52
65
61
36
31
37
45
67
61
70
56
71
109
94
90
85
101
124
152
165
167
173
171
172
168
167
178
150
152
185
217
218
219
217
216
217
216
217
223
222
223
224
225
224
225
227
226
224
198
201
202
198
200
198
197
199
200
195
198
203
201
198
201
200
201
201
201
201
184
180
127
140
142
102
137
158
159
121
58
35
103
109
69
108
108
80
31
22
20
19
22
24
21
22
45
82
127
116
86
30
29
23
20
23
33
40
29
30
48
80
87
118
147
121
103
101
91
132
161
172
177
174
173
176
173
172
132
159
210
215
216
218
216
216
218
219
220
220
221
222
224
225
224
225
228
228
225
198
200
201
202
200
196
199
201
200
202
202
201
199
198
199
198
199
201
203
191
157
155
123
137
155
134
116
140
125
97
35
67
96
54
86
70
49
44
26
19
19
19
20
19
18
20
30
107
136
126
97
41
22
21
22
24
20
19
23
66
134
155
164
135
76
130
121
100
106
123
150
170
175
176
177
175
129
104
99
155
204
191
196
213
218
217
218
218
220
219
221
222
226
224
225
226
227
227
222
200
202
206
204
202
200
199
201
199
200
201
200
201
201
201
199
198
202
204
160
155
147
126
138
156
162
132
111
102
54
30
73
29
21
27
36
20
19
18
19
18
20
21
18
21
28
94
143
152
151
146
107
27
24
21
19
21
21
24
25
22
34
58
87
108
63
138
123
117
142
149
170
176
171
156
122
113
168
163
132
172
175
169
171
217
218
218
218
219
220
221
222
227
227
225
228
227
228
226
200
203
204
199
201
200
199
198
200
198
208
200
202
202
201
202
199
204
184
83
139
177
162
152
157
168
167
114
112
76
58
33
27
27
45
114
59
22
22
24
66
21
21
19
23
29
116
165
164
169
170
122
29
27
24
19
26
56
77
27
24
24
75
85
37
44
76
144
123
144
155
164
160
131
98
136
161
157
169
173
179
167
101
79
202
218
217
219
222
223
222
223
225
225
226
227
227
226
225
200
202
202
202
203
201
201
201
201
204
206
202
202
202
202
203
202
203
177
72
79
155
166
167
167
171
173
144
91
92
61
36
54
99
132
121
122
82
82
67
73
37
30
49
68
32
111
171
172
173
170
114
28
62
90
36
33
69
112
62
60
79
134
135
133
116
63
121
146
146
151
142
102
112
152
168
178
158
176
178
176
161
108
69
191
220
220
221
219
222
222
223
224
225
227
225
226
227
223
199
203
204
205
203
206
205
203
205
206
206
203
204
203
206
205
209
209
180
73
72
134
155
161
152
174
172
152
55
37
33
73
129
143
126
110
114
94
81
81
56
52
84
90
87
24
40
74
88
79
71
40
26
66
102
106
91
72
96
114
124
135
149
156
157
171
126
82
151
147
126
103
131
166
175
167
190
178
173
166
175
172
118
93
200
222
220
219
221
224
224
224
225
225
226
224
224
226
223
205
202
203
203
205
208
209
209
205
207
206
206
212
208
209
206
210
208
179
97
76
140
151
148
152
175
173
172
151
120
59
96
157
152
144
121
93
68
76
92
100
102
111
118
108
39
32
41
79
73
33
30
32
84
108
97
94
107
114
129
127
129
142
156
172
182
151
43
98
113
107
150
169
176
180
181
181
162
172
161
179
172
124
120
214
223
221
222
222
224
223
224
225
225
225
224
224
225
223
206
202
204
206
207
206
206
212
204
206
206
209
207
206
206
207
209
209
191
138
69
158
168
152
168
176
172
174
171
166
120
86
162
154
149
147
146
152
157
150
134
118
132
130
131
47
42
138
177
177
129
37
35
111
113
112
96
120
140
153
161
160
165
173
172
176
144
45
44
59
134
174
175
174
178
180
153
149
152
173
179
174
134
163
223
225
223
223
222
224
224
225
224
225
224
224
223
226
222
205
203
204
206
209
206
215
210
211
210
205
208
208
207
206
206
208
208
199
157
87
159
160
135
143
178
176
177
176
171
163
72
153
160
156
155
164
165
157
138
122
121
161
167
144
48
80
169
182
183
166
75
40
120
143
146
124
113
136
164
178
172
175
173
161
165
124
82
159
175
188
180
177
177
176
174
137
104
107
170
196
178
145
202
226
225
228
225
226
225
226
226
226
226
223
224
221
224
222
205
204
206
209
208
206
207
210
210
211
208
210
206
205
207
209
209
208
210
170
131
161
154
112
121
180
179
180
179
177
172
134
100
162
145
145
143
134
125
122
121
153
172
176
111
117
133
185
183
185
176
111
47
127
159
166
167
139
127
139
147
152
159
166
161
169
87
162
196
196
190
188
177
176
178
185
145
107
106
157
199
177
174
223
225
228
228
227
226
228
227
227
226
225
224
225
224
225
221
207
206
207
212
211
207
207
208
213
214
208
210
209
207
206
206
208
209
209
188
154
167
156
99
105
179
175
177
179
177
175
175
114
110
155
152
137
125
109
113
149
172
180
158
105
173
166
193
192
188
182
139
99
85
166
168
173
172
144
130
122
142
150
163
178
142
118
197
192
194
197
189
179
176
178
190
184
158
129
153
203
175
205
228
228
225
229
227
228
228
228
229
227
227
226
227
227
226
224
207
207
208
211
209
208
208
207
209
211
210
210
211
209
207
207
209
206
206
204
159
179
160
97
142
175
171
170
174
176
177
175
171
117
94
135
133
118
115
149
170
175
148
119
175
175
185
201
193
194
187
164
137
104
116
175
177
176
162
139
133
134
149
167
160
122
178
199
199
201
193
185
179
178
182
190
194
184
139
165
208
172
220
230
230
230
230
229
230
229
229
230
229
229
227
229
226
228
225
206
209
211
212
212
208
208
208
211
213
212
212
213
207
208
211
210
211
208
209
178
175
159
106
158
175
166
166
168
171
167
176
166
162
141
92
79
96
119
123
116
112
156
183
185
179
195
202
196
196
189
172
156
144
120
106
161
184
174
167
157
153
155
147
130
181
194
196
200
198
188
184
177
179
186
189
188
168
134
184
198
182
229
230
230
231
232
231
230
232
232
232
229
228
229
226
229
228
224
210
209
211
216
213
212
211
212
212
213
215
213
214
212
211
212
212
210
208
211
198
159
180
150
140
169
160
164
166
164
163
165
157
156
152
155
152
154
154
159
167
181
179
177
187
184
197
207
204
198
189
168
158
146
139
139
101
111
140
153
149
135
113
132
168
180
184
190
191
190
186
179
176
177
187
183
158
151
179
193
162
206
228
230
233
234
233
233
232
234
234
234
232
232
232
232
230
230
226
208
206
209
214
213
212
214
211
212
214
215
217
217
213
212
213
213
208
210
211
213
163
150
193
175
167
161
160
162
159
160
155
147
146
159
173
179
184
184
175
166
150
146
175
186
189
203
209
204
202
197
175
166
161
135
130
158
169
168
160
163
173
175
171
166
163
173
180
181
184
184
179
175
180
190
167
151
192
197
151
176
227
229
232
234
234
233
234
233
236
236
236
233
234
235
234
233
232
227
208
209
208
213
214
210
214
213
214
214
214
217
217
213
213
213
210
211
211
210
214
191
139
179
181
165
158
158
156
154
152
150
150
153
171
183
188
190
182
175
164
149
133
182
190
197
207
211
203
200
201
184
178
172
150
114
148
172
182
186
189
191
188
183
179
178
168
171
172
175
175
177
173
182
192
184
182
189
186
174
209
230
229
233
232
234
232
235
234
236
236
236
236
235
235
235
234
232
228
210
213
211
214
216
216
213
214
213
215
215
217
216
214
213
211
212
214
215
214
215
207
161
178
179
171
158
153
150
146
146
147
145
163
183
189
191
187
182
174
154
128
139
193
197
196
206
203
203
201
196
180
179
178
161
138
136
161
182
190
200
196
191
188
187
174
171
170
174
177
177
178
177
184
192
190
189
202
212
208
221
234
235
234
235
236
236
235
236
238
236
237
237
236
237
236
236
233
230
217
216
212
213
216
212
214
218
215
217
215
216
215
212
212
212
216
211
215
214
216
214
178
173
175
172
161
154
152
145
136
147
149
168
186
191
192
188
182
162
141
122
161
194
191
185
182
164
178
187
166
161
171
175
170
146
132
153
169
186
195
199
191
193
192
179
176
175
172
171
177
177
177
189
201
204
212
212
217
218
230
233
235
234
237
235
237
236
237
238
237
236
237
237
238
236
236
234
231
216
217
215
216
218
215
215
214
215
214
215
216
214
211
213
214
219
212
216
215
216
217
194
159
175
179
160
156
151
146
141
147
161
182
183
190
192
189
176
152
133
152
165
158
110
96
138
115
115
116
123
105
119
139
156
151
153
145
160
177
190
195
191
191
187
178
174
178
171
177
177
178
178
190
207
214
218
216
212
219
233
234
235
235
236
236
236
237
237
238
237
236
236
236
236
236
236
234
230
219
220
218
219
217
220
215
216
222
219
219
218
218
214
214
214
215
218
219
217
217
217
210
160
176
180
167
156
154
154
152
153
164
180
185
184
187
179
161
147
159
174
173
120
50
47
50
48
40
49
49
43
42
74
123
159
178
160
158
172
181
191
193
190
189
175
178
181
183
179
179
180
182
189
213
217
218
216
205
230
234
234
234
234
236
237
236
237
236
238
237
236
237
236
237
237
235
235
231
216
215
216
217
217
216
214
218
218
220
218
219
218
217
214
215
215
216
223
217
217
218
217
181
155
173
171
155
153
155
155
158
163
179
182
185
184
166
145
149
176
184
178
163
117
120
86
61
58
50
60
92
86
75
141
175
185
183
165
164
171
182
191
193
190
182
186
187
187
187
182
181
182
192
200
214
213
207
228
233
232
233
233
235
235
236
238
237
236
238
238
238
237
238
236
238
238
238
231
214
219
218
220
218
215
214
217
217
220
219
219
218
216
216
217
213
214
223
221
220
217
217
212
164
152
172
154
149
153
158
159
172
183
185
184
178
161
155
177
189
189
188
185
178
173
150
132
111
107
133
148
160
162
183
191
192
196
172
154
166
180
185
189
186
185
186
191
188
188
183
181
182
193
169
165
197
231
233
234
232
233
235
236
236
236
237
237
236
238
238
238
238
238
236
238
238
238
234
214
215
216
218
217
215
216
218
218
222
219
219
219
215
216
219
221
219
217
221
220
220
219
218
211
188
180
159
154
158
163
161
172
181
184
176
169
161
174
193
195
194
192
196
192
189
181
160
135
142
160
176
183
192
199
197
192
192
192
173
173
178
180
182
185
190
188
189
191
189
189
181
183
189
232
229
232
234
232
236
234
234
235
235
238
236
236
236
236
238
238
238
238
238
238
238
238
238
234
215
216
219
218
221
219
220
218
222
220
219
221
222
220
218
218
219
218
221
220
221
220
219
220
216
216
192
165
161
162
165
158
171
184
180
171
168
170
190
196
194
191
196
195
194
191
186
170
149
154
175
185
189
193
199
199
197
200
202
184
174
178
181
183
183
195
198
195
194
191
185
181
181
188
231
233
233
234
234
234
235
234
236
235
237
236
236
236
236
238
238
238
239
240
238
238
238
238
233
216
218
220
219
219
219
219
219
222
217
221
221
222
220
219
221
224
220
222
221
221
221
221
221
221
218
196
172
167
165
160
165
172
183
175
169
173
184
197
202
194
193
192
196
194
188
176
168
143
164
179
191
194
205
203
197
201
196
201
196
177
172
181
182
185
199
194
204
205
193
186
182
184
196
233
235
235
234
233
234
233
236
236
235
236
236
236
236
237
239
238
238
240
240
238
238
238
238
233
218
221
220
220
222
219
219
220
219
223
221
222
221
221
223
222
223
223
223
223
223
224
223
224
222
221
201
172
166
162
161
169
174
179
174
176
178
187
196
192
191
191
193
185
194
202
193
181
161
181
195
196
191
202
203
192
193
195
200
200
183
174
176
180
185
191
195
209
210
198
195
185
176
203
235
234
236
236
235
234
235
236
236
236
235
236
237
237
238
240
239
239
240
240
239
239
239
238
235
218
222
223
222
224
222
219
218
221
221
226
224
224
223
225
222
225
222
223
224
224
226
225
225
223
221
209
174
171
166
167
167
171
179
175
178
180
188
193
181
170
176
180
184
204
183
171
190
202
212
183
188
203
200
190
186
190
184
194
197
189
175
176
183
183
194
201
211
207
203
194
190
182
210
237
236
237
238
235
236
236
237
237
236
236
238
239
238
237
240
240
240
239
240
239
238
238
238
234
218
222
222
223
225
223
221
220
222
224
223
225
224
222
223
222
224
225
225
224
226
225
226
229
226
224
218
178
169
168
173
166
169
176
176
177
185
188
178
165
150
162
174
173
155
92
94
132
166
134
114
120
170
192
188
170
169
155
172
185
194
181
177
182
188
188
197
199
197
197
193
194
180
217
236
237
239
240
237
237
237
238
238
236
237
238
240
240
240
240
240
240
239
240
238
238
238
238
234
220
223
222
224
227
222
222
222
222
225
224
227
225
223
224
224
227
225
226
227
230
229
227
226
227
227
226
186
168
169
172
165
170
179
176
175
186
185
159
118
78
91
90
68
50
50
49
52
55
57
56
65
73
98
122
134
117
91
135
170
179
177
176
185
182
186
190
195
199
203
199
190
180
230
236
238
238
240
238
238
240
240
240
240
239
240
241
241
241
241
241
240
241
241
238
240
239
238
235
221
223
224
226
226
224
225
225
225
227
223
228
226
224
225
226
227
229
229
229
232
230
230
231
226
227
229
203
171
168
171
170
174
177
174
172
182
164
110
48
42
50
55
82
78
69
60
55
48
54
53
45
42
42
41
44
42
46
75
147
171
178
177
182
185
187
192
200
200
199
190
179
188
236
238
239
239
240
239
240
241
241
241
241
240
240
241
242
241
240
241
241
241
241
240
240
240
240
234
223
225
227
226
227
225
223
225
229
229
227
226
227
229
230
227
229
229
232
230
232
230
231
230
229
229
232
214
174
171
167
172
171
175
177
180
177
143
79
47
101
152
158
176
172
177
170
162
157
159
161
152
135
126
106
112
120
89
82
130
162
180
181
180
184
188
190
198
198
200
182
173
212
239
238
238
237
240
239
240
241
241
241
241
241
241
241
242
241
241
241
241
241
241
241
242
241
241
237
226
225
228
228
227
225
226
226
230
232
231
230
232
230
228
231
231
231
235
232
233
230
233
235
232
229
229
227
181
170
169
170
173
171
181
177
162
128
77
88
150
169
154
154
170
164
162
169
158
161
156
161
150
145
145
152
153
134
102
100
145
173
186
191
189
184
190
192
187
192
176
176
233
240
239
239
238
240
237
239
240
241
241
241
240
241
241
241
241
241
241
243
241
241
241
241
241
241
238
225
225
230
228
225
229
228
228
229
230
231
235
234
231
230
230
231
230
234
236
236
233
233
234
232
233
227
231
207
171
173
165
166
172
174
173
151
123
104
142
166
166
142
119
118
124
116
107
120
117
130
137
142
135
128
123
134
152
135
114
123
154
181
188
194
193
198
187
189
179
163
195
239
240
235
239
239
238
239
240
241
241
242
241
241
241
242
242
241
241
241
241
241
241
241
242
241
241
238
225
229
229
230
230
229
229
230
229
232
231
233
234
232
232
229
234
232
233
234
236
235
235
234
235
233
232
232
229
187
180
168
159
170
171
162
138
121
122
154
165
170
147
114
79
53
42
31
32
38
45
54
66
83
97
110
130
148
141
139
124
148
173
183
189
187
192
187
187
172
173
231
240
239
240
238
239
238
238
240
241
241
242
240
241
241
241
242
241
241
241
241
241
241
241
242
241
241
238
224
229
230
228
231
230
230
230
231
233
232
229
232
231
232
231
234
234
233
234
234
235
234
235
234
234
233
232
232
215
179
174
164
162
161
152
128
129
132
161
161
159
145
107
61
35
33
35
36
39
33
34
52
86
110
130
148
156
150
149
149
151
158
172
183
182
185
183
172
166
192
239
240
240
240
240
240
239
240
241
241
241
241
241
241
241
242
241
241
241
241
241
241
241
241
241
241
241
238
226
228
229
232
231
231
228
230
231
232
234
233
234
232
234
232
236
236
232
234
234
234
235
235
235
234
234
232
235
235
205
179
171
163
155
143
130
136
145
161
158
153
140
125
92
72
70
77
75
74
75
72
92
118
138
146
165
174
179
158
154
159
168
182
187
186
182
180
156
166
171
149
236
241
241
241
241
241
240
241
241
241
240
241
241
241
243
242
241
241
241
241
242
242
242
241
242
241
238
228
232
232
233
232
229
230
232
233
234
235
236
237
235
237
235
237
237
236
236
236
236
236
238
238
236
238
237
239
239
234
198
179
161
155
149
138
148
171
180
176
170
155
145
139
157
171
159
154
152
154
150
148
148
174
187
191
199
192
178
168
169
177
186
181
183
183
164
161
175
177
71
143
238
241
241
241
241
240
241
241
241
240
241
241
241
243
242
242
243
242
241
243
242
243
241
242
241
238
231
233
234
234
234
233
232
235
235
236
236
236
236
236
237
238
239
239
237
238
237
239
238
239
237
238
240
240
239
239
239
230
184
169
160
155
148
175
191
200
193
186
189
190
201
210
212
196
195
191
196
191
180
187
192
202
202
203
202
192
181
167
169
178
172
173
163
158
180
182
185
105
62
201
242
240
240
241
241
242
241
241
241
243
243
243
241
243
243
243
243
241
243
243
243
241
241
241
238
232
235
236
235
235
236
234
236
237
238
238
238
238
238
238
239
240
239
238
241
239
239
238
238
240
238
241
239
240
241
240
240
220
171
162
160
157
175
190
209
211
202
203
214
220
219
211
206
196
210
201
202
209
207
201
198
203
206
200
189
176
166
157
161
163
148
146
172
176
176
188
145
58
117
240
241
242
241
242
243
242
242
241
242
243
241
242
241
242
243
243
242
243
243
243
241
242
241
238
234
237
237
237
236
236
238
237
237
236
236
238
238
236
237
238
239
240
240
240
242
240
238
238
240
241
241
240
240
237
194
152
114
151
159
155
158
163
197
201
206
212
214
218
214
208
196
195
186
199
199
205
213
211
206
202
211
209
200
183
158
136
135
136
128
119
157
179
178
181
190
167
54
56
210
240
240
241
241
237
211
183
167
157
165
191
225
240
243
243
243
243
243
243
243
241
242
241
237
235
238
238
238
237
236
236
237
238
239
238
238
238
235
238
239
239
240
241
240
241
240
240
240
240
241
241
241
239
154
57
50
51
130
151
138
167
175
194
197
205
204
206
211
197
196
186
189
179
179
187
195
202
201
191
197
195
202
179
155
124
95
93
93
111
151
159
174
180
180
185
158
49
49
158
239
239
227
172
99
52
44
43
43
45
50
70
187
242
243
243
243
243
242
241
241
241
241
238
236
239
238
239
237
237
239
237
238
238
238
240
239
239
237
240
239
239
241
240
240
241
241
241
241
241
240
235
149
50
58
49
42
124
174
117
90
164
182
198
190
195
194
192
183
188
166
158
142
150
163
172
181
187
183
186
184
181
157
114
87
45
48
108
159
164
163
172
178
184
187
121
40
40
84
222
172
71
41
36
33
33
33
32
33
37
39
68
173
239
242
243
243
242
241
241
242
241
239
236
239
238
239
237
236
237
237
238
238
239
240
240
240
241
241
241
241
241
241
241
241
241
241
242
242
233
133
51
42
38
39
38
110
190
152
127
113
174
177
174
194
191
173
169
175
141
130
89
121
157
160
155
164
162
163
160
140
115
72
33
69
144
154
160
164
154
166
181
183
178
53
32
30
36
48
42
31
32
34
31
29
26
30
30
32
33
42
53
150
242
242
243
242
241
241
242
241
238
236
239
239
240
240
237
238
238
238
239
238
240
240
241
241
241
241
241
242
243
242
242
241
242
242
237
141
45
37
34
32
40
38
59
179
141
155
138
123
153
147
163
188
175
156
147
109
71
35
68
86
122
119
111
119
107
100
75
58
55
112
152
164
173
175
166
163
167
182
182
105
28
26
24
25
24
23
25
26
28
25
25
32
26
28
29
30
33
40
60
195
241
243
243
243
243
242
242
239
237
240
241
240
240
239
240
239
239
240
239
239
241
241
241
241
241
242
240
242
243
243
242
242
236
151
46
34
33
29
30
30
31
37
151
156
160
153
140
108
127
125
134
150
108
61
28
22
22
25
40
32
21
22
29
25
30
46
99
139
160
178
169
173
175
175
171
174
183
140
35
25
22
22
20
19
21
22
19
23
22
23
22
28
28
28
28
29
31
43
78
225
243
243
243
243
243
241
238
238
241
241
241
240
240
239
240
240
241
240
241
241
241
241
241
242
241
243
243
243
243
242
238
133
47
36
29
27
25
26
23
25
30
82
164
173
164
158
137
133
124
100
85
57
33
23
21
17
18
16
18
17
17
17
17
41
98
130
138
156
176
178
174
173
184
181
181
167
56
25
24
22
21
18
17
18
17
19
23
21
21
21
22
22
22
26
27
29
35
44
120
237
243
243
243
243
241
238
238
241
241
240
241
239
240
240
240
241
240
239
240
241
241
241
242
241
243
242
243
242
239
152
46
35
31
31
24
25
25
25
25
25
27
73
161
174
173
154
152
162
134
75
92
97
21
17
18
18
22
19
21
20
22
49
60
109
138
158
174
179
183
181
180
188
188
160
69
23
18
20
26
21
24
18
18
18
16
18
19
19
20
22
20
21
25
26
29
29
35
54
155
239
243
242
241
241
239
238
241
241
241
241
240
239
239
241
240
241
240
241
241
241
242
242
241
242
242
243
242
177
46
36
31
30
28
27
25
23
24
24
21
21
24
58
144
181
169
159
166
157
117
111
141
76
19
20
21
38
42
60
56
74
83
96
129
131
141
169
174
185
181
184
181
143
51
20
18
17
18
22
27
39
18
18
18
18
20
17
17
19
19
23
20
22
26
28
29
34
38
57
157
241
243
242
241
239
238
241
241
241
241
240
239
240
241
241
241
241
241
241
241
242
243
243
243
244
227
164
52
33
28
27
24
22
23
24
24
19
20
17
16
18
23
26
86
117
151
182
171
122
93
146
124
75
70
43
58
82
96
112
118
103
112
132
140
152
172
181
191
185
155
99
30
24
17
17
18
18
18
17
15
16
18
18
18
20
21
18
18
19
20
22
21
22
22
24
27
32
43
62
180
243
242
241
239
239
241
241
241
241
241
241
241
241
241
241
241
241
242
243
241
242
243
242
189
68
38
32
27
25
23
25
26
20
19
18
18
18
18
17
17
17
17
14
11
48
126
149
121
91
129
117
64
47
37
31
60
102
128
130
130
112
135
153
150
164
157
134
89
34
20
18
18
15
17
18
18
16
16
18
15
15
18
17
17
17
16
17
13
17
19
19
21
21
25
25
28
33
47
69
202
242
243
239
239
241
241
241
241
241
241
241
241
242
242
241
242
243
243
243
243
244
242
153
39
28
24
24
23
22
24
19
18
20
17
17
18
17
16
16
12
12
10
9
12
18
19
18
23
53
75
43
17
29
55
77
110
125
125
115
92
103
88
69
49
20
20
17
14
13
16
16
15
16
16
16
15
15
18
16
16
18
17
17
15
17
18
18
22
17
18
17
20
22
24
26
34
40
63
86
216
243
239
239
241
241
241
241
241
241
241
241
243
243
241
243
243
243
244
244
240
196
85
34
25
23
25
21
22
20
20
19
18
17
17
17
17
17
12
11
11
13
12
12
12
9
11
17
13
10
15
12
13
20
51
57
51
23
11
14
18
14
15
15
16
15
14
14
13
14
15
15
15
15
15
14
14
13
14
16
18
18
18
15
18
33
16
17
16
18
18
18
20
23
26
32
40
64
65
113
200
236
239
241
241
240
242
241
241
241
242
242
241
241
243
243
243
242
210
119
45
31
24
23
20
20
19
19
18
18
19
16
17
17
16
16
17
11
7
7
11
9
8
7
8
8
13
7
7
7
9
13
11
13
13
15
15
15
14
20
16
12
14
16
15
13
11
11
10
13
15
15
15
15
13
15
15
15
14
18
18
18
14
20
17
17
19
15
18
18
18
23
23
25
30
34
43
52
73
83
101
239
241
241
241
241
241
243
242
241
241
242
242
242
243
238
172
58
35
29
22
19
20
18
21
18
17
26
17
18
21
15
19
17
16
14
9
10
9
11
16
11
9
13
12
12
12
12
12
9
12
13
11
13
15
12
14
14
16
16
15
10
12
15
12
12
13
8
10
15
15
14
11
14
15
12
14
15
16
15
18
17
16
16
18
16
16
18
18
18
28
20
22
25
30
33
40
39
43
51
239
241
241
241
241
241
243
242
241
241
242
243
241
200
117
44
29
27
21
17
20
17
17
17
16
18
17
17
16
19
15
18
16
16
14
8
9
10
11
11
15
10
10
11
10
9
8
9
10
12
14
12
12
14
12
14
15
12
13
16
10
11
14
14
23
9
12
14
14
14
14
12
13
14
13
15
15
18
17
15
15
19
18
18
18
17
16
17
18
17
17
18
24
29
31
32
35
41
57
238
242
242
243
243
241
242
241
241
242
241
205
120
47
33
25
24
21
19
19
18
22
18
17
19
16
18
15
16
18
16
15
15
15
10
7
7
7
7
7
7
7
9
12
7
7
7
7
8
9
7
11
10
11
13
11
13
9
13
14
10
13
15
14
14
12
9
13
16
14
15
14
11
11
11
14
15
18
16
15
15
17
18
17
17
18
18
18
18
18
20
18
18
23
25
31
31
26
30
238
241
241
243
242
241
242
242
240
207
124
45
37
28
24
23
18
18
19
17
18
18
17
15
17
17
17
17
16
17
16
14
15
13
10
7
9
10
8
8
7
7
8
9
7
7
7
7
8
8
8
10
11
11
11
11
14
10
14
13
8
13
14
16
12
10
9
11
12
13
15
13
10
12
15
15
15
16
16
15
15
16
16
15
18
18
17
17
18
18
18
18
18
25
35
31
29
16
18
238
241
241
243
242
241
240
213
132
51
38
31
26
24
17
18
17
16
18
16
14
19
17
17
17
18
16
17
18
16
15
13
15
13
10
7
10
10
13
15
11
7
7
7
7
7
7
7
7
9
13
10
10
11
11
12
14
14
11
11
10
12
9
11
8
8
8
9
10
10
9
12
9
12
11
15
15
15
15
15
15
16
26
18
19
18
17
16
16
18
23
19
23
15
15
20
20
16
18
239
241
242
241
241
228
156
61
38
33
28
29
24
20
17
18
18
18
17
17
16
15
15
15
18
16
15
15
16
18
16
15
15
16
11
7
7
8
11
10
9
7
9
7
7
7
7
7
7
8
9
10
10
11
10
15
11
12
8
7
8
9
10
22
18
21
13
9
12
7
14
7
9
11
13
14
15
12
15
15
18
17
27
24
31
18
15
16
17
18
18
18
18
14
15
16
18
18
18
239
241
242
234
178
77
46
35
34
29
28
28
23
17
15
18
18
18
17
18
15
17
16
16
16
15
16
16
15
16
15
15
14
11
9
10
11
9
8
9
7
6
10
10
10
8
7
7
9
16
15
10
13
13
12
12
13
16
13
9
9
24
13
13
15
17
12
8
11
15
13
9
10
14
14
13
10
13
16
17
16
16
15
16
18
18
17
17
17
18
19
20
19
16
16
15
19
19
18
239
238
192
97
52
38
32
31
27
28
24
22
24
18
16
18
17
15
18
16
15
17
17
16
17
16
16
16
15
15
15
15
14
13
12
11
22
9
7
7
8
7
10
10
11
9
7
7
10
11
11
9
12
14
14
13
13
14
14
11
14
13
15
13
10
10
8
8
9
15
14
12
14
14
15
14
14
15
16
18
15
15
15
16
18
18
18
18
18
18
18
17
21
18
16
15
22
22
18
196
115
57
47
37
34
30
26
26
20
21
21
20
17
16
18
17
17
17
16
18
17
17
15
18
17
15
18
18
18
16
15
14
13
9
7
7
8
10
8
7
7
7
8
11
13
11
13
8
13
11
12
12
15
14
11
13
12
10
10
10
9
11
10
12
12
7
9
10
13
10
9
13
15
11
14
15
13
17
18
14
15
15
15
22
24
15
17
18
18
17
17
17
16
17
20
16
15
16
66
53
44
42
35
31
27
24
21
25
21
19
18
18
16
18
18
18
18
17
17
16
20
18
18
17
16
18
18
17
14
14
12
10
9
7
7
7
7
7
7
7
7
7
9
10
9
8
9
11
8
8
12
13
11
9
10
9
11
11
9
7
9
10
10
13
12
14
12
12
12
12
14
14
13
14
14
12
12
15
15
14
15
16
16
17
14
17
18
16
18
18
22
16
15
14
14
15
17
59
51
45
37
34
28
26
24
21
25
21
19
21
19
16
18
18
18
18
18
18
18
17
16
18
17
17
18
16
13
13
14
10
10
10
7
7
7
8
7
7
7
7
7
7
8
9
7
7
6
6
8
12
11
12
8
7
8
9
8
8
7
7
10
11
12
8
12
8
11
12
8
14
13
13
14
15
15
18
15
15
15
15
20
16
15
14
16
18
18
17
19
17
16
13
13
14
15
17
58
49
43
38
33
30
25
23
22
22
21
19
21
18
16
19
17
18
18
16
18
18
17
15
18
18
18
15
15
15
15
15
10
10
11
8
9
10
13
9
7
7
7
7
7
8
9
8
12
12
11
14
11
8
8
8
11
11
10
7
7
8
7
7
7
7
9
9
7
9
12
15
14
14
15
15
15
15
15
15
15
15
15
15
15
15
17
17
18
18
21
19
16
15
14
13
15
15
16
60
51
43
37
31
32
29
26
21
21
21
18
19
18
17
17
17
18
18
17
18
18
17
16
18
17
16
15
14
14
15
15
10
12
13
10
11
9
9
9
9
7
8
8
7
8
8
8
8
7
8
10
10
7
12
10
12
11
13
10
9
10
9
10
7
10
10
8
7
10
9
14
12
13
15
16
15
18
17
17
17
16
15
15
16
17
18
17
17
17
18
16
15
15
16
12
15
17
16
61
48
41
36
30
32
26
25
19
18
18
18
20
18
18
18
18
18
18
18
18
18
17
17
18
17
15
15
14
14
14
14
10
13
11
11
13
12
7
7
7
7
8
8
7
7
7
8
8
7
8
9
12
7
8
10
13
9
10
11
14
14
10
12
7
12
12
9
7
10
11
8
10
12
11
15
15
15
16
18
18
17
15
15
16
18
18
17
16
20
19
16
15
15
17
16
17
18
18
60
49
43
36
30
29
27
24
23
18
20
17
18
18
16
18
18
15
18
17
14
15
15
16
13
15
15
15
15
15
15
13
17
16
10
9
7
7
7
7
7
7
11
7
7
7
7
7
7
7
7
7
7
7
9
7
7
7
7
9
12
13
10
9
9
7
7
7
7
7
7
7
9
11
15
12
14
12
17
18
15
16
17
15
15
15
15
15
17
19
18
18
17
15
15
15
16
18
18
62
51
43
36
30
30
30
27
26
21
21
18
18
18
17
18
19
18
18
16
15
16
17
18
15
15
13
15
15
15
16
15
15
12
8
9
8
8
7
7
7
8
8
7
7
7
8
7
7
7
7
9
9
7
8
8
9
7
7
9
9
9
9
9
10
8
8
9
8
9
10
9
12
13
15
15
16
15
16
16
15
15
13
15
14
16
13
15
31
26
16
18
18
16
16
17
17
25
18
61
50
43
36
32
29
28
25
25
21
22
24
19
19
18
18
18
18
18
16
19
17
17
18
16
17
17
15
15
15
13
14
15
12
9
11
10
8
8
7
7
8
8
7
7
11
7
10
7
8
10
11
10
7
7
8
13
9
8
11
10
9
7
9
21
13
11
11
14
14
14
16
16
15
15
15
15
16
16
15
15
16
16
15
13
17
16
17
19
18
19
18
18
17
17
18
19
34
19
63
52
46
38
32
29
28
27
23
25
21
23
25
19
18
20
18
17
19
16
15
15
15
15
15
20
21
18
15
15
15
15
16
15
15
11
11
14
13
13
13
12
10
10
8
12
8
8
8
7
11
12
11
9
14
10
10
13
9
11
10
9
7
9
10
13
10
13
15
13
11
15
15
15
16
16
15
14
16
13
11
14
15
18
16
35
20
20
18
19
20
17
15
15
17
18
18
16
18
66
54
45
37
33
31
29
27
26
25
20
19
18
17
18
18
17
18
16
13
15
15
15
16
16
14
16
17
17
17
17
17
16
15
13
9
11
10
9
15
16
17
14
14
10
10
9
9
10
9
13
11
11
11
16
14
15
13
10
10
12
10
11
14
14
15
13
15
15
12
13
16
16
17
17
15
14
14
15
13
10
13
15
17
18
20
17
21
18
18
17
14
17
17
20
20
20
17
17
62
53
45
40
38
32
29
29
26
25
20
20
18
17
17
18
18
18
15
13
15
15
15
17
16
15
15
17
18
18
18
17
16
17
10
7
10
10
7
11
9
9
9
11
11
9
8
8
10
10
10
7
7
8
14
12
15
12
10
11
12
11
15
13
16
15
11
15
15
16
16
17
15
16
17
16
17
16
16
12
9
12
15
16
18
18
18
18
16
18
17
15
18
18
18
18
19
18
18
66
54
48
40
35
29
29
27
25
25
23
20
18
19
18
18
18
16
18
18
18
18
17
15
18
17
15
15
16
14
16
18
22
22
10
7
9
7
7
7
9
12
13
11
13
13
10
7
8
9
8
8
11
10
13
13
12
12
13
17
12
13
15
12
13
15
15
15
15
13
15
18
15
15
15
15
15
18
15
13
11
10
15
18
20
18
18
18
18
17
17
18
18
19
19
17
19
17
18
69
57
49
35
36
32
29
30
27
23
21
18
21
18
18
18
16
16
17
17
16
16
15
16
16
15
15
17
17
15
16
17
16
16
8
7
10
7
7
8
10
13
12
8
8
11
9
7
9
10
7
8
9
9
13
11
12
9
8
11
10
10
15
14
14
16
13
12
14
14
14
15
15
16
15
16
17
18
17
15
13
11
15
17
19
19
18
18
19
18
18
22
22
23
23
22
19
17
19
69
54
49
41
33
34
29
32
29
21
22
22
19
17
18
18
18
17
16
16
15
16
15
16
15
16
18
18
18
18
17
17
16
15
15
7
10
7
7
8
8
11
11
7
8
10
7
7
10
10
7
9
11
10
14
16
14
9
9
16
15
14
15
13
12
13
13
14
15
13
13
16
17
17
15
17
18
16
15
13
11
11
15
16
16
15
18
20
25
21
21
21
27
32
27
32
29
24
18
71
59
50
41
37
32
29
27
28
24
25
23
21
18
19
18
18
16
18
17
15
16
17
16
18
16
13
17
18
18
17
16
15
15
11
13
12
9
7
7
7
13
8
7
7
9
8
11
13
11
10
9
11
11
14
15
12
15
15
13
17
16
16
15
15
14
12
12
18
18
17
19
20
16
12
15
15
15
15
13
8
13
17
17
17
18
18
20
26
21
23
26
26
25
18
24
23
26
18
73
60
53
46
40
32
33
29
29
24
23
25
21
21
17
18
19
17
18
17
15
16
15
17
16
16
16
16
15
16
16
16
15
15
12
10
12
10
9
8
8
11
11
9
7
9
8
11
11
13
16
18
18
14
16
16
19
17
16
16
14
13
13
14
14
15
13
10
16
16
16
12
14
14
14
14
15
17
16
16
10
13
16
18
17
17
18
21
21
24
21
22
20
17
15
16
18
17
19
73
60
51
45
39
31
32
29
29
25
23
25
23
19
18
19
18
18
18
17
15
15
15
17
15
15
15
15
13
15
15
15
15
15
14
13
12
11
11
12
12
11
11
11
15
8
9
11
12
10
7
11
16
23
21
14
15
12
12
13
12
12
15
14
14
15
14
10
15
15
15
13
15
15
15
13
15
18
15
13
9
15
15
18
17
17
18
20
22
21
21
22
24
19
14
16
19
20
36
75
63
53
50
43
37
33
33
29
29
27
22
20
22
19
18
18
19
18
16
18
14
15
17
15
15
15
15
16
18
16
16
15
16
12
11
12
11
11
10
9
10
12
13
14
12
12
10
9
12
10
10
12
11
15
8
11
12
10
10
13
12
15
15
14
11
11
13
15
14
14
15
15
15
15
17
18
16
17
10
10
16
18
16
16
16
20
25
21
25
21
22
34
26
21
31
22
24
53
76
62
52
49
44
41
35
31
28
32
29
24
26
25
21
18
18
18
18
17
18
20
15
18
15
16
17
17
17
17
16
16
15
15
13
13
14
14
15
13
12
14
16
14
16
14
16
15
15
14
13
14
15
14
13
15
14
12
12
9
12
12
15
15
15
15
15
15
15
14
14
15
15
15
15
16
17
16
13
8
11
18
20
18
19
22
28
27
24
19
21
20
33
35
21
22
24
29
56
78
64
55
49
43
40
34
35
32
36
27
25
23
23
19
19
20
19
18
17
17
16
17
17
15
16
18
18
17
17
16
15
15
14
14
15
14
14
15
16
15
11
16
18
29
19
15
15
16
13
15
15
15
15
15
15
15
15
15
15
17
16
15
15
15
15
15
13
15
15
15
15
15
15
15
15
17
19
15
11
19
35
21
29
23
23
20
17
20
18
17
20
21
22
18
22
22
19
52
77
66
54
49
50
38
36
31
41
29
27
27
27
31
31
33
22
22
18
18
18
17
18
15
20
17
17
18
20
19
17
14
15
24
25
18
18
18
18
18
17
15
16
17
17
15
13
18
17
18
16
16
14
15
15
14
15
15
15
15
16
16
18
16
15
15
15
15
13
14
15
16
16
15
16
18
18
15
11
12
21
26
23
23
25
23
15
14
17
14
14
16
15
16
16
18
18
18
39
82
66
56
52
47
46
36
35
35
29
32
30
25
25
22
26
28
22
18
19
19
19
18
16
18
16
18
18
21
18
19
16
15
16
19
18
18
18
18
18
18
17
16
17
16
16
30
16
15
20
17
18
22
15
14
15
15
15
17
16
15
17
18
16
16
15
16
17
18
17
16
17
18
16
16
21
16
14
11
13
24
33
28
26
24
17
18
16
18
15
16
18
15
16
17
18
18
18
21
80
68
59
54
52
41
41
33
34
33
28
31
31
28
26
25
22
25
18
23
21
21
26
23
22
18
18
19
20
20
18
15
15
15
17
17
17
18
18
18
18
18
16
17
15
16
15
15
17
17
17
16
15
15
15
15
15
15
18
17
15
14
16
16
17
15
17
18
18
19
20
16
13
13
14
22
14
15
17
19
26
33
31
22
18
14
15
17
18
16
17
16
15
16
18
18
18
18
18
80
71
63
53
55
46
45
41
35
38
36
29
32
29
26
25
29
26
23
20
21
21
24
22
21
21
23
21
24
20
21
19
19
16
16
16
19
18
18
20
20
18
19
20
19
17
17
19
17
19
17
16
16
16
16
17
17
18
19
14
17
19
21
17
16
18
19
16
18
18
17
15
16
13
10
13
11
12
15
24
37
40
43
18
16
15
15
13
15
18
17
15
18
17
19
23
24
21
20
82
73
68
60
56
52
44
41
41
38
34
32
37
30
26
31
27
25
24
24
20
23
24
33
24
22
25
19
22
21
22
20
21
19
19
17
19
18
19
19
22
29
18
19
22
20
23
20
22
23
18
18
19
20
20
21
27
21
21
21
20
19
26
23
24
21
22
21
23
23
20
15
14
10
10
14
12
14
14
25
25
34
40
20
17
17
15
15
17
17
17
17
19
17
16
15
17
19
19
84
79
68
62
56
58
45
47
43
38
35
33
37
35
35
31
32
28
25
25
26
37
28
30
29
28
30
24
28
26
25
25
27
23
24
24
24
22
24
21
21
27
22
22
23
21
21
21
24
25
23
24
26
26
27
27
33
30
40
31
29
25
27
23
24
26
23
24
31
27
26
22
18
14
16
15
15
11
12
13
14
16
14
15
17
18
15
17
18
16
17
16
18
20
19
16
17
20
18
86
80
69
72
64
65
54
55
50
47
42
40
39
41
39
38
34
35
30
34
35
42
31
33
29
29
31
41
33
34
29
29
29
27
30
30
27
31
28
33
28
35
29
28
34
29
29
27
33
31
33
30
34
34
30
32
33
40
36
39
36
32
31
30
38
31
30
33
34
32
32
32
31
23
19
17
14
13
12
12
15
14
15
15
20
23
16
15
13
15
13
15
18
18
18
17
16
18
20
88
84
77
74
76
71
60
61
61
60
57
49
50
49
48
42
44
42
41
43
49
43
40
37
38
40
42
44
38
37
37
35
34
34
38
39
34
36
40
45
37
41
38
38
41
45
42
39
40
51
43
46
45
47
45
45
47
47
45
49
48
48
52
50
50
44
44
47
50
51
53
53
59
47
39
36
25
18
14
12
11
15
13
16
14
16
12
14
16
15
15
16
17
18
19
17
16
16
18
88
85
82
81
73
70
65
69
65
69
67
63
62
59
61
57
55
52
56
57
54
53
53
52
54
50
53
49
51
50
52
49
48
49
53
55
55
58
57
55
53
53
54
54
63
56
56
60
61
60
64
60
62
60
58
59
60
59
60
62
61
62
63
64
63
59
60
62
62
70
67
69
75
70
71
71
71
68
48
31
16
15
16
14
14
17
19
19
18
15
17
18
16
19
25
37
37
20
20
